<svg xmlns="http://www.w3.org/2000/svg" width="20" height="21.812" viewBox="0 0 20 21.812">
  <path id="Pfad_1" data-name="Pfad 1" d="M771.411,771.105a3.536,3.536,0,0,1-1.036,2.691,3.828,3.828,0,0,1-2.754.987H755.212a3.828,3.828,0,0,1-2.754-.987,3.536,3.536,0,0,1-1.036-2.691q0-.752.05-1.469a14.433,14.433,0,0,1,.2-1.551,12.011,12.011,0,0,1,.376-1.541,7.276,7.276,0,0,1,.61-1.384,4.987,4.987,0,0,1,.88-1.15,3.7,3.7,0,0,1,1.214-.76,4.261,4.261,0,0,1,1.583-.284,1.731,1.731,0,0,1,.6.305q.468.305,1.058.682a6.71,6.71,0,0,0,1.533.682,6.037,6.037,0,0,0,3.791,0,6.712,6.712,0,0,0,1.533-.682q.589-.376,1.058-.682a1.737,1.737,0,0,1,.6-.305,4.26,4.26,0,0,1,1.583.284,3.7,3.7,0,0,1,1.214.76,4.99,4.99,0,0,1,.88,1.15,7.279,7.279,0,0,1,.61,1.384,12.011,12.011,0,0,1,.377,1.541,14.464,14.464,0,0,1,.2,1.551Q771.411,770.352,771.411,771.105Zm-4.543-12.679a5.453,5.453,0,1,1-1.6-3.854,5.252,5.252,0,0,1,1.6,3.854Z" transform="translate(-751.416 -752.975)" fill="#1f86ff"/>
</svg>
