<svg xmlns="http://www.w3.org/2000/svg" width="25" height="25" viewBox="0 0 25 25">
  <g id="Group_27" data-name="Group 27" transform="translate(-225 -225)">
    <path id="Path_14" data-name="Path 14" d="M234.441,247.331a7.713,7.713,0,0,1-2.981-2.981l-3.96,3.96,2.981,2.981Z" transform="translate(-0.371 -3.42)" fill="#1f86ff"/>
    <path id="Path_15" data-name="Path 15" d="M250.014,247.033l-2.683-2.683a7.713,7.713,0,0,1-2.981,2.981l3.96,3.96,2.981-2.981Z" transform="translate(-3.42 -3.42)" fill="#1f86ff"/>
    <path id="Path_16" data-name="Path 16" d="M234.442,247.85l-2.042,2.768a6.709,6.709,0,0,0,9.581,0l-2.042-2.768A4.311,4.311,0,0,1,234.442,247.85Z" transform="translate(0.335 -3.939)" fill="#1f86ff"/>
    <path id="Path_17" data-name="Path 17" d="M239.889,231.318l2.042-2.768a6.709,6.709,0,0,0-9.581,0l2.042,2.768A4.311,4.311,0,0,1,239.889,231.318Z" transform="translate(0.333 -0.228)" fill="#1f86ff"/>
    <path id="Path_18" data-name="Path 18" d="M251.3,230.481l-2.981-2.981-3.918,3.918a8.2,8.2,0,0,1,2.938,2.853Z" transform="translate(-3.428 -0.371)" fill="#1f86ff"/>
    <path id="Path_19" data-name="Path 19" d="M250.661,232.35a6.709,6.709,0,0,1,0,9.581l-.128-.063-2.683-1.979a4.552,4.552,0,0,0,.979-2.733v-.628l-.852-2.2Z" transform="translate(-3.939 0.333)" fill="#1f86ff"/>
    <path id="Path_20" data-name="Path 20" d="M231.5,234.313a7.573,7.573,0,0,1,2.938-2.853l-3.96-3.96-2.981,2.981Z" transform="translate(-0.371 -0.371)" fill="#1f86ff"/>
    <path id="Path_21" data-name="Path 21" d="M230.338,237.156a4.416,4.416,0,0,0,.979,2.733l-2.768,2.042a6.709,6.709,0,0,1,0-9.581l2.64,1.979Z" transform="translate(-0.228 0.333)" fill="#1f86ff"/>
    <path id="Path_22" data-name="Path 22" d="M248.292,230.125a.455.455,0,0,0-.083-.417l-2.917-2.917a.332.332,0,0,0-.417-.083A2.5,2.5,0,0,0,242.5,225h-10a2.5,2.5,0,0,0-2.375,1.708.455.455,0,0,0-.417.083l-2.917,2.917a.332.332,0,0,0-.083.417A2.5,2.5,0,0,0,225,232.5v10a2.5,2.5,0,0,0,1.708,2.375.455.455,0,0,0,.083.417l2.917,2.917a.332.332,0,0,0,.417.083A2.517,2.517,0,0,0,232.5,250h10a2.5,2.5,0,0,0,2.375-1.708.455.455,0,0,0,.417-.083l2.917-2.917a.332.332,0,0,0,.083-.417A2.517,2.517,0,0,0,250,242.5v-10A2.5,2.5,0,0,0,248.292,230.125Zm-.958-.125-3.208,3.208a8.877,8.877,0,0,0-2.333-2.333L245,227.667Zm-2.75,11.042a7.943,7.943,0,0,0,0-7.125l2.125-2.125a10.839,10.839,0,0,1,0,11.417Zm-7.083,4.375a7.909,7.909,0,0,0,3.542-.833l2.125,2.125a10.839,10.839,0,0,1-11.417,0l2.125-2.125A8.539,8.539,0,0,0,237.5,245.417Zm0-.833a7.083,7.083,0,1,1,7.083-7.083A7.077,7.077,0,0,1,237.5,244.583Zm-9.208-1.375a10.839,10.839,0,0,1,0-11.417l2.125,2.125a7.943,7.943,0,0,0,0,7.125Zm9.208-13.625a7.909,7.909,0,0,0-3.542.833l-2.125-2.125a10.839,10.839,0,0,1,11.417,0l-2.208,2.125A7.909,7.909,0,0,0,237.5,229.583Zm-5-3.75h10a1.674,1.674,0,0,1,1.667,1.5l-.333.333a11.728,11.728,0,0,0-12.625,0l-.375-.333A1.674,1.674,0,0,1,232.5,225.833Zm-2.5,1.833,3.208,3.208a8.878,8.878,0,0,0-2.333,2.333L227.667,230ZM225.833,242.5v-10a1.674,1.674,0,0,1,1.5-1.667l.333.333a11.728,11.728,0,0,0,0,12.625l-.333.375A1.674,1.674,0,0,1,225.833,242.5Zm1.833,2.5,3.208-3.208a8.877,8.877,0,0,0,2.333,2.333L230,247.333Zm14.833,4.167h-10a1.674,1.674,0,0,1-1.667-1.5l.333-.333a11.728,11.728,0,0,0,12.625,0l.333.333A1.6,1.6,0,0,1,242.5,249.167Zm2.5-1.833-3.208-3.208a8.877,8.877,0,0,0,2.333-2.333l2.25,2.25.125.125.833.833Zm4.167-9.833v5a1.674,1.674,0,0,1-1.5,1.667l-.333-.333a11.728,11.728,0,0,0,0-12.625l.333-.333a1.674,1.674,0,0,1,1.5,1.667Z" transform="translate(0 0)" fill="#1f86ff"/>
  </g>
</svg>
